<svg id="svg" version="1.1" xmlns="http://www.w3.org/2000/svg" xmlns:xlink="http://www.w3.org/1999/xlink" width="90" height="90" viewBox="0, 0, 400,400"><g id="svgg"><path id="path0" d="M76.333 200.000 L 76.333 323.667 101.083 323.667 L 125.833 323.667 125.833 200.000 L 125.833 76.333 101.083 76.333 L 76.333 76.333 76.333 200.000 M150.667 86.731 L 150.667 97.129 219.602 166.064 C 257.517 203.979,288.586 235.000,288.644 235.000 C 288.703 235.000,296.625 227.125,306.250 217.500 L 323.750 200.000 261.917 138.167 L 200.084 76.333 175.375 76.333 L 150.667 76.333 150.667 86.731 M150.667 218.583 L 150.667 323.667 175.458 323.639 L 200.250 323.612 240.393 283.412 L 280.536 243.213 263.094 225.771 C 253.501 216.177,245.582 208.311,245.496 208.289 C 245.410 208.268,235.214 218.374,222.837 230.747 L 200.333 253.245 200.333 208.126 L 200.333 163.008 175.579 138.254 C 161.964 124.639,150.789 113.500,150.745 113.500 C 150.702 113.500,150.667 160.787,150.667 218.583 " stroke="none" fill="#343434" fill-rule="evenodd"></path><path id="path1" d="" stroke="none" fill="#383434" fill-rule="evenodd"></path><path id="path2" d="" stroke="none" fill="#383434" fill-rule="evenodd"></path><path id="path3" d="" stroke="none" fill="#383434" fill-rule="evenodd"></path><path id="path4" d="" stroke="none" fill="#383434" fill-rule="evenodd"></path></g></svg>